<svg width="389" height="400" viewBox="0 0 389 400" fill="none" xmlns="http://www.w3.org/2000/svg">
<path d="M382.492 254.389C382.492 292.286 362.025 327.054 328.028 352.552C294.029 378.051 246.784 394 194.344 394C141.905 394 94.6601 378.051 60.6609 352.552C26.6636 327.054 6.19629 292.286 6.19629 254.389C6.19629 216.492 26.6636 181.724 60.6609 156.226C94.6601 130.727 141.905 114.778 194.344 114.778C246.784 114.778 294.029 130.727 328.028 156.226C362.025 181.724 382.492 216.492 382.492 254.389Z" fill="#C4C4C4" stroke="black" stroke-width="12"/>
<path d="M180.033 84.0755C179.478 94.247 174.305 105.988 165.493 118.329C156.244 131.282 143.447 144.248 129.473 155.809C115.511 167.359 100.553 177.357 87.1129 184.436C73.4072 191.654 62.1319 195.377 55.2737 195.377C46.8131 195.377 41.462 195.007 37.8926 193.982C34.8097 193.097 33.524 191.881 32.5993 189.904C31.3919 187.322 30.672 183.082 30.3974 175.618C30.207 170.443 30.233 164.246 30.2649 156.635C30.2783 153.447 30.2927 150.012 30.2927 146.299C30.2927 122.238 36.3704 86.3223 46.6088 56.4899C51.7295 41.5692 57.7651 28.5479 64.3465 19.3806C70.9538 10.1771 77.1249 6.17919 82.4503 6.0059C96.5478 7.97896 113.031 15.9672 130.205 29.5738C147.079 42.9423 164.261 61.4545 180.033 84.0755Z" fill="#1D1D24" stroke="black" stroke-width="12"/>
<path d="M170.361 98.8144C170.042 108.845 165.485 120.208 157.925 131.886C150.125 143.933 139.371 155.943 127.671 166.619C115.976 177.29 103.447 186.528 92.1812 193.072C80.7155 199.733 71.1877 203.229 65.3122 203.229C58.2655 203.229 53.7227 202.892 50.6471 201.918C47.9443 201.062 46.5448 199.782 45.5576 197.454C44.4 194.724 43.7986 190.489 43.5691 183.609C43.409 178.809 43.4309 173.05 43.4576 166.028C43.4687 163.104 43.4807 159.961 43.4807 156.576C43.4807 134.211 48.5884 100.976 57.1751 73.3796C61.4709 59.5732 66.5624 47.4269 72.1655 38.8185C77.8252 30.123 83.2412 26.1785 88.004 26.035C99.9256 27.8604 113.825 35.298 128.264 47.9157C142.54 60.3916 157.061 77.6874 170.361 98.8144Z" fill="white" stroke="black" stroke-width="8"/>
<path d="M206.59 84.7639C207.145 94.9354 212.318 106.676 221.13 119.017C230.379 131.97 243.176 144.936 257.15 156.497C271.112 168.047 286.07 178.046 299.51 185.124C313.216 192.343 324.491 196.065 331.349 196.065C339.81 196.065 345.161 195.695 348.73 194.67C351.813 193.785 353.099 192.569 354.024 190.592C355.231 188.011 355.951 183.771 356.226 176.307C356.416 171.131 356.39 164.934 356.358 157.323C356.345 154.136 356.33 150.7 356.33 146.988C356.33 122.927 350.253 87.0108 340.014 57.1783C334.894 42.2577 328.858 29.2364 322.277 20.0691C315.669 10.8656 309.498 6.86766 304.173 6.69437C290.075 8.66743 273.592 16.6557 256.418 30.2623C239.544 43.6308 222.362 62.143 206.59 84.7639Z" fill="#1D1D24" stroke="black" stroke-width="12"/>
<path d="M214.885 98.8144C215.204 108.845 219.761 120.208 227.321 131.886C235.121 143.933 245.875 155.943 257.575 166.619C269.27 177.29 281.799 186.528 293.065 193.072C304.531 199.733 314.058 203.229 319.934 203.229C326.981 203.229 331.523 202.892 334.599 201.918C337.302 201.062 338.701 199.782 339.688 197.454C340.846 194.724 341.448 190.489 341.677 183.609C341.837 178.809 341.815 173.05 341.788 166.028C341.777 163.104 341.765 159.961 341.765 156.576C341.765 134.211 336.658 100.976 328.071 73.3796C323.775 59.5732 318.684 47.4269 313.081 38.8185C307.421 30.123 302.005 26.1785 297.242 26.035C285.321 27.8604 271.421 35.298 256.983 47.9157C242.706 60.3916 228.185 77.6874 214.885 98.8144Z" fill="white" stroke="black" stroke-width="8"/>
<path d="M356.33 185.542C356.33 217.289 338.743 246.544 309.285 268.083C279.83 289.619 238.847 303.122 193.311 303.122C147.776 303.122 106.793 289.619 77.3383 268.083C47.8797 246.544 30.2925 217.289 30.2925 185.542C30.2925 153.795 47.8797 124.54 77.3383 103.001C106.793 81.4655 147.776 67.9621 193.311 67.9621C238.847 67.9621 279.83 81.4655 309.285 103.001C338.743 124.54 356.33 153.795 356.33 185.542Z" fill="white" stroke="black" stroke-width="12"/>
<ellipse cx="194.344" cy="254.389" rx="185.886" ry="137.349" fill="white"/>
<path d="M191.59 270.224V341.824C191.59 341.824 166.704 344.578 158.2 339.415C149.695 334.251 138.578 315.318 132.038 301.549C123.776 293.287 122.399 275.043 124.465 272.978C126.53 270.912 139.955 283.993 156.823 283.993C173.69 283.993 191.59 270.224 191.59 270.224Z" fill="#B1B1D7"/>
<path d="M195.721 270.568V342.169C195.721 342.169 220.607 344.923 229.111 339.759C237.616 334.596 248.733 315.663 255.273 301.893C263.535 293.632 264.912 275.387 262.847 273.322C260.781 271.256 247.356 284.337 230.489 284.337C213.621 284.337 195.721 270.568 195.721 270.568Z" fill="#B1B1D7"/>
<path d="M193.93 272.978V355.938C186.701 355.938 172.588 355.938 158.13 340.103C143.672 324.269 137.132 298.795 137.132 298.795C137.132 298.795 131.968 295.009 128.526 288.124C125.084 281.239 123.018 273.666 124.739 272.978C126.46 272.289 138.509 294.32 159.163 294.32C179.817 294.32 193.93 272.978 193.93 272.978Z" fill="black"/>
<path d="M193.931 272.98V355.94C201.159 355.94 215.273 355.94 229.731 340.105C244.189 324.271 250.729 298.797 250.729 298.797C250.729 298.797 255.893 295.011 259.335 288.126C262.777 281.241 264.843 273.668 263.122 272.98C261.4 272.291 249.352 294.322 228.698 294.322C208.044 294.322 193.931 272.98 193.931 272.98Z" fill="black"/>
<path d="M227.047 260.241C227.047 270.887 211.11 280.895 194 280.895C176.89 280.895 161.298 270.887 161.298 260.241C161.298 242.341 176.89 242.341 194 242.341C211.11 242.341 227.047 242.341 227.047 260.241Z" fill="black"/>
<ellipse cx="194" cy="251.635" rx="16.5232" ry="4.47504" fill="white"/>
<path d="M225.325 323.924C225.325 331.842 212.323 348.021 193.312 348.021C174.3 348.021 161.298 332.186 161.298 323.924C161.298 315.663 174.3 307.745 193.312 307.745C212.323 307.745 225.325 316.007 225.325 323.924Z" fill="#B33387"/>
<path d="M225.325 323.924C225.325 331.842 212.323 348.021 193.312 348.021C174.3 348.021 161.298 332.186 161.298 323.924C161.298 315.663 174.3 307.745 193.312 307.745C212.323 307.745 225.325 316.007 225.325 323.924Z" fill="#B33387"/>
<path d="M225.325 323.924C225.325 331.842 212.323 334.94 193.312 334.94C174.3 334.94 161.298 332.186 161.298 323.924C161.298 315.663 174.3 307.745 193.312 307.745C212.323 307.745 225.325 316.007 225.325 323.924Z" fill="#FA4E94"/>
<path d="M225.325 323.924C225.325 331.842 212.323 334.94 193.312 334.94C174.3 334.94 161.298 332.186 161.298 323.924C161.298 315.663 174.3 307.745 193.312 307.745C212.323 307.745 225.325 316.007 225.325 323.924Z" fill="#FA4E94"/>
<path d="M112.761 205.546C115.515 205.89 125.038 208.988 131.005 217.25C136.972 225.512 139.267 238.592 136.513 238.592C133.759 238.592 127.218 221.381 111.039 220.692C94.8605 220.004 83.5008 231.364 80.7469 231.364C77.993 231.364 81.7796 220.004 90.0412 211.742C98.3028 203.481 110.007 205.202 112.761 205.546Z" fill="black"/>
<path d="M279.15 205.546C276.396 205.89 266.872 208.988 260.905 217.25C254.938 225.512 252.643 238.592 255.397 238.592C258.151 238.592 264.692 221.381 280.871 220.692C297.05 220.004 308.409 231.364 311.163 231.364C313.917 231.364 310.131 220.004 301.869 211.742C293.607 203.481 281.903 205.202 279.15 205.546Z" fill="black"/>
<path d="M9.83496 271.256C9.83496 271.256 44.6026 319.793 82.8126 339.415C121.023 359.036 162.331 374.871 193.656 374.871C224.981 374.871 210.523 390.989 193.656 391.738C176.788 392.488 144.43 387.608 133.071 384.165C121.023 381.067 97.6147 373.15 80.0587 362.823C62.5028 352.496 46.3238 341.824 29.1121 317.384C11.9004 292.943 9.83496 271.256 9.83496 271.256Z" fill="#B1B1D7"/>
<path d="M378.728 271.256C378.728 271.256 343.96 319.793 305.75 339.415C267.54 359.036 226.232 374.871 194.907 374.871C163.581 374.871 178.039 390.989 194.907 391.738C211.774 392.488 244.132 387.608 255.492 384.165C267.54 381.067 290.948 373.15 308.504 362.823C326.06 352.496 342.239 341.824 359.45 317.384C376.662 292.943 378.728 271.256 378.728 271.256Z" fill="#B1B1D7"/>
<path d="M153.38 116.007C167.838 130.465 159.921 181.411 170.936 192.427C181.952 203.442 193.566 203.787 193.566 203.787V152.496V138.038V119.793V101.549V84.3374V70.2238C193.566 70.2238 153.47 68.5026 116.203 84.3374C86.943 92.599 59.7486 121.17 55.8722 125.301C51.9958 129.432 32.8983 150.775 32.4643 186.575C18.4405 201.377 11.7204 227.539 11.1218 230.637C2.60571 251.979 12.4987 283.649 12.4987 283.649C12.4987 283.649 5.68817 263.683 22.5713 235.112C39.4544 206.54 49.7658 220.654 64.5678 192.427C79.3699 164.2 76.616 149.053 100.368 125.301C124.12 101.549 138.922 101.549 153.38 116.007Z" fill="#1D1D24"/>
<path d="M233.841 116.062C219.384 130.52 227.301 181.466 216.285 192.482C205.27 203.497 193.656 203.841 193.656 203.841V152.551V138.093V119.848V101.604V84.3922V70.2786C193.656 70.2786 233.752 68.5575 271.019 84.3922C300.279 92.6539 327.473 121.225 331.349 125.356C335.226 129.487 353.979 146.988 354.413 182.788C368.437 197.59 376.19 225.129 376.788 228.227C385.304 249.57 376.788 281.928 376.788 281.928C376.788 281.928 381.533 263.738 364.65 235.167C347.767 206.595 337.456 220.709 322.654 192.482C307.852 164.255 310.606 149.108 286.853 125.356C263.101 101.604 248.299 101.604 233.841 116.062Z" fill="#1D1D24"/>
<path d="M188.4 70.2238H199.06C199.06 70.2238 202.391 200.78 199.06 202.498C195.728 204.216 192.064 204.216 188.4 202.498C184.735 200.78 188.4 70.2238 188.4 70.2238Z" fill="#1D1D24"/>
</svg>
